name rise49.5252peak65.1548fall88.8305.mot
datacolumns 19
datarows 43
range 0.000000 0.069999
endheader
time	ground_force1_vx	ground_force1_vy	ground_force1_vz	ground_force1_px	ground_force1_py	ground_force1_pz	ground_force2_vx	ground_force2_vy	ground_force2_vz	ground_force2_px	ground_force2_py	ground_force2_pz	ground_torque1_x	ground_torque1_y	ground_torque1_z	ground_torque2_x	ground_torque2_y	ground_torque2_z	
0.000000	85.764912	564.600986	52.970658	0.429339	0.000000	0.133754	-40.721722	245.317278	2.631396	0.150413	0.000000	-0.069448	0.000000	0.770869	0.000000	0.000000	-11.529244	0.000000	
0.001664	85.116433	566.411352	52.745898	0.428390	0.000000	0.133700	-40.066116	241.262733	2.630294	0.151055	0.000000	-0.069276	0.000000	1.389318	0.000000	0.000000	-11.350326	0.000000	
0.003324	84.473694	568.207128	52.523226	0.427383	0.000000	0.133642	-39.415805	237.247889	2.629236	0.151672	0.000000	-0.069105	0.000000	1.999324	0.000000	0.000000	-11.172997	0.000000	
0.004999	83.835774	570.006527	52.304473	0.426318	0.000000	0.133580	-38.766558	233.257880	2.627712	0.152262	0.000000	-0.068936	0.000000	2.601500	0.000000	0.000000	-10.995838	0.000000	
0.006663	83.200937	571.830431	52.091255	0.425194	0.000000	0.133516	-38.113268	229.272033	2.625191	0.152822	0.000000	-0.068767	0.000000	3.197298	0.000000	0.000000	-10.817211	0.000000	
0.008325	82.566923	573.700839	51.884977	0.424014	0.000000	0.133448	-37.450409	225.266089	2.621144	0.153349	0.000000	-0.068600	0.000000	3.788729	0.000000	0.000000	-10.635390	0.000000	
0.009995	81.931233	575.639443	51.686844	0.422776	0.000000	0.133378	-36.772480	221.214366	2.615067	0.153839	0.000000	-0.068434	0.000000	4.378092	0.000000	0.000000	-10.448694	0.000000	
0.011666	81.291385	577.666409	51.497887	0.421484	0.000000	0.133304	-36.074385	217.091751	2.606503	0.154289	0.000000	-0.068270	0.000000	4.967724	0.000000	0.000000	-10.255597	0.000000	
0.013330	80.645124	579.799438	51.318984	0.420138	0.000000	0.133229	-35.351742	212.875391	2.595051	0.154696	0.000000	-0.068109	0.000000	5.559794	0.000000	0.000000	-10.054815	0.000000	
0.014998	79.990581	582.053112	51.150896	0.418739	0.000000	0.133150	-34.601113	208.546059	2.580384	0.155055	0.000000	-0.067950	0.000000	6.156138	0.000000	0.000000	-9.845365	0.000000	
0.016658	79.326386	584.438549	50.994290	0.417290	0.000000	0.133070	-33.820137	204.089152	2.562250	0.155362	0.000000	-0.067794	0.000000	6.758152	0.000000	0.000000	-9.626604	0.000000	
0.018327	78.651715	586.963320	50.849770	0.415793	0.000000	0.132988	-33.007598	199.495353	2.540485	0.155614	0.000000	-0.067641	0.000000	7.366734	0.000000	0.000000	-9.398236	0.000000	
0.019990	77.966298	589.631602	50.717899	0.414251	0.000000	0.132904	-32.163404	194.760961	2.515007	0.155804	0.000000	-0.067492	0.000000	7.982274	0.000000	0.000000	-9.160307	0.000000	
0.021666	77.270380	592.444510	50.599221	0.412664	0.000000	0.132818	-31.288516	189.887947	2.485826	0.155929	0.000000	-0.067346	0.000000	8.604677	0.000000	0.000000	-8.913171	0.000000	
0.023326	76.564661	595.400550	50.494267	0.411038	0.000000	0.132732	-30.384835	184.883770	2.453033	0.155982	0.000000	-0.067205	0.000000	9.233424	0.000000	0.000000	-8.657451	0.000000	
0.024992	75.850211	598.496138	50.403569	0.409373	0.000000	0.132644	-29.455043	179.760981	2.416807	0.155958	0.000000	-0.067068	0.000000	9.867641	0.000000	0.000000	-8.393993	0.000000	
0.026662	75.128371	601.726146	50.327664	0.407673	0.000000	0.132556	-28.502433	174.536652	2.377404	0.155851	0.000000	-0.066935	0.000000	10.506196	0.000000	0.000000	-8.123806	0.000000	
0.028328	74.400659	605.084405	50.267086	0.405943	0.000000	0.132467	-27.530729	169.231635	2.335149	0.155653	0.000000	-0.066808	0.000000	11.147779	0.000000	0.000000	-7.848011	0.000000	
0.029994	73.668681	608.564174	50.222367	0.404183	0.000000	0.132377	-26.543894	163.869670	2.290432	0.155358	0.000000	-0.066686	0.000000	11.790992	0.000000	0.000000	-7.567778	0.000000	
0.031662	72.934046	612.158509	50.194025	0.402399	0.000000	0.132288	-25.545955	158.476334	2.243684	0.154958	0.000000	-0.066570	0.000000	12.434423	0.000000	0.000000	-7.284278	0.000000	
0.033330	72.198306	615.860559	50.182560	0.400594	0.000000	0.132199	-24.540825	153.077835	2.195369	0.154443	0.000000	-0.066460	0.000000	13.076708	0.000000	0.000000	-6.998634	0.000000	
0.034996	71.462905	619.663754	50.188436	0.398770	0.000000	0.132110	-23.532145	147.699667	2.145949	0.153804	0.000000	-0.066358	0.000000	13.716576	0.000000	0.000000	-6.711872	0.000000	
0.036657	70.729144	623.561913	50.212078	0.396932	0.000000	0.132022	-22.523142	142.365144	2.095866	0.153032	0.000000	-0.066262	0.000000	14.352882	0.000000	0.000000	-6.424890	0.000000	
0.038325	69.998167	627.549276	50.253856	0.395084	0.000000	0.131935	-21.516505	137.093853	2.045503	0.152113	0.000000	-0.066174	0.000000	14.984623	0.000000	0.000000	-6.138422	0.000000	
0.039999	69.270955	631.620462	50.314082	0.393228	0.000000	0.131849	-20.514289	131.900109	1.995152	0.151037	0.000000	-0.066095	0.000000	15.610940	0.000000	0.000000	-5.853022	0.000000	
0.041663	68.548333	635.770391	50.392998	0.391369	0.000000	0.131764	-19.517850	126.791487	1.944980	0.149788	0.000000	-0.066024	0.000000	16.231116	0.000000	0.000000	-5.569047	0.000000	
0.043343	67.830987	639.994170	50.490773	0.389510	0.000000	0.131681	-18.527818	121.767562	1.894996	0.148351	0.000000	-0.065963	0.000000	16.844555	0.000000	0.000000	-5.286658	0.000000	
0.045019	67.119480	644.286964	50.607497	0.387655	0.000000	0.131599	-17.544113	116.819000	1.845022	0.146709	0.000000	-0.065912	0.000000	17.450767	0.000000	0.000000	-5.005832	0.000000	
0.046666	66.414276	648.643871	50.743182	0.385807	0.000000	0.131518	-16.566018	111.927140	1.794679	0.144842	0.000000	-0.065872	0.000000	18.049345	0.000000	0.000000	-4.726385	0.000000	
0.048326	65.715765	653.059805	50.897754	0.383969	0.000000	0.131440	-15.592301	107.064223	1.743382	0.142729	0.000000	-0.065843	0.000000	18.639942	0.000000	0.000000	-4.448011	0.000000	
0.049994	65.024277	657.529396	51.071059	0.382144	0.000000	0.131363	-14.621400	102.194392	1.690353	0.140345	0.000000	-0.065827	0.000000	19.222251	0.000000	0.000000	-4.170338	0.000000	
0.051666	64.340105	662.046915	51.262863	0.380336	0.000000	0.131289	-13.651664	97.275554	1.634652	0.137661	0.000000	-0.065824	0.000000	19.795987	0.000000	0.000000	-3.892989	0.000000	
0.053328	63.663515	666.606231	51.472850	0.378548	0.000000	0.131216	-12.681649	92.262131	1.575229	0.134646	0.000000	-0.065836	0.000000	20.360871	0.000000	0.000000	-3.615664	0.000000	
0.054998	62.994755	671.200789	51.700628	0.376783	0.000000	0.131146	-11.710439	87.108657	1.511002	0.131262	0.000000	-0.065863	0.000000	20.916624	0.000000	0.000000	-3.338221	0.000000	
0.056663	62.334064	675.823612	51.945727	0.375043	0.000000	0.131077	-10.737997	81.774065	1.440941	0.127467	0.000000	-0.065908	0.000000	21.462957	0.000000	0.000000	-3.060764	0.000000	
0.058333	61.681667	680.467331	52.207608	0.373330	0.000000	0.131011	-9.765499	76.226441	1.364178	0.123211	0.000000	-0.065970	0.000000	21.999568	0.000000	0.000000	-2.783723	0.000000	
0.059995	61.037777	685.124224	52.485658	0.371648	0.000000	0.130948	-8.795628	70.447862	1.280117	0.118434	0.000000	-0.066052	0.000000	22.526147	0.000000	0.000000	-2.507926	0.000000	
0.061666	60.402592	689.786273	52.779199	0.369998	0.000000	0.130886	-7.832788	64.438897	1.188538	0.113067	0.000000	-0.066155	0.000000	23.042374	0.000000	0.000000	-2.234642	0.000000	
0.063327	59.776284	694.445228	53.087487	0.368382	0.000000	0.130827	-6.883207	58.222241	1.089691	0.107027	0.000000	-0.066282	0.000000	23.547927	0.000000	0.000000	-1.965603	0.000000	
0.064998	59.158996	699.092671	53.409716	0.366803	0.000000	0.130769	-5.954885	51.844942	0.984362	0.100213	0.000000	-0.066435	0.000000	24.042486	0.000000	0.000000	-1.702980	0.000000	
0.066660	58.550836	703.720085	53.745017	0.365261	0.000000	0.130714	-5.057362	45.378699	0.873895	0.092500	0.000000	-0.066617	0.000000	24.525738	0.000000	0.000000	-1.449325	0.000000	
0.068324	57.951870	708.318915	54.092468	0.363759	0.000000	0.130661	-4.201306	38.917829	0.760166	0.083736	0.000000	-0.066831	0.000000	24.997386	0.000000	0.000000	-1.207453	0.000000	
0.069999	57.362115	712.880625	54.451089	0.362297	0.000000	0.130610	-3.397905	32.574672	0.645506	0.073729	0.000000	-0.067081	0.000000	25.457150	0.000000	0.000000	-0.980295	0.000000	
